<?xml version="1.0" standalone="no"?>
<!DOCTYPE svg PUBLIC "-//W3C//DTD SVG 20010904//EN"
 "http://www.w3.org/TR/2001/REC-SVG-20010904/DTD/svg10.dtd">
<svg version="1.0" xmlns="http://www.w3.org/2000/svg"
 width="640.000000pt" height="640.000000pt" viewBox="0 0 640.000000 640.000000"
 preserveAspectRatio="xMidYMid meet">

<g transform="translate(0.000000,640.000000) scale(0.100000,-0.100000)"
fill="#000000" stroke="none">
<path d="M360 6386 c-158 -44 -291 -175 -340 -334 -20 -63 -20 -99 -20 -2852
0 -2764 0 -2788 20 -2853 37 -118 136 -239 240 -292 117 -59 -108 -55 2940
-55 3048 0 2823 -4 2940 55 104 53 203 174 240 292 20 65 20 89 20 2853 0
2753 0 2789 -20 2852 -50 161 -184 291 -345 334 -71 20 -5606 19 -5675 0z
m2843 -574 c7 -6 32 -12 57 -14 97 -10 267 -71 304 -109 6 -5 18 -9 27 -9 29
0 97 -42 154 -96 12 -11 26 -19 31 -17 6 2 23 -10 39 -27 16 -16 32 -30 37
-30 4 0 23 -15 41 -32 19 -18 47 -45 63 -60 16 -14 51 -49 78 -77 27 -28 53
-51 58 -51 5 0 7 -4 4 -9 -3 -4 9 -22 27 -39 52 -49 73 -75 118 -143 24 -35
71 -101 106 -147 35 -45 63 -87 63 -93 0 -5 18 -34 40 -64 22 -30 40 -65 40
-78 0 -16 7 -26 19 -30 12 -3 33 -34 55 -78 20 -41 52 -101 71 -134 42 -71 75
-142 75 -160 0 -7 7 -18 15 -25 8 -7 15 -17 15 -23 0 -12 28 -76 65 -148 13
-25 29 -66 35 -90 7 -24 20 -55 29 -69 28 -39 121 -281 121 -313 0 -7 7 -25
16 -42 9 -16 24 -50 33 -75 10 -25 22 -54 26 -65 4 -11 10 -33 12 -50 3 -16 8
-32 12 -35 5 -3 14 -30 21 -60 7 -30 16 -63 21 -72 5 -10 9 -23 9 -29 0 -6 6
-25 14 -42 8 -18 24 -75 36 -127 13 -52 26 -99 30 -105 29 -40 46 -398 22
-475 -58 -190 -92 -271 -166 -390 -52 -83 -105 -155 -153 -206 -18 -19 -33
-39 -33 -44 0 -6 -6 -10 -14 -10 -8 0 -17 -8 -20 -18 -3 -10 -19 -26 -36 -35
-16 -10 -30 -22 -30 -26 0 -18 -273 -255 -283 -245 -2 3 -18 -8 -35 -23 -16
-15 -36 -32 -43 -38 -60 -44 -88 -62 -111 -74 -15 -8 -36 -21 -45 -30 -24 -22
-122 -81 -134 -81 -5 0 -18 -8 -28 -18 -33 -29 -44 -36 -99 -61 -29 -14 -57
-30 -63 -37 -5 -6 -30 -17 -54 -24 -25 -7 -45 -16 -45 -20 0 -4 -39 -27 -87
-50 -49 -23 -99 -48 -113 -55 -107 -57 -213 -105 -230 -105 -8 0 -24 -7 -34
-15 -11 -8 -33 -15 -48 -15 -16 0 -31 -6 -34 -14 -3 -8 -17 -17 -32 -21 -15
-4 -29 -11 -32 -16 -3 -4 -15 -10 -25 -12 -11 -2 -33 -9 -48 -15 -15 -7 -31
-11 -35 -10 -4 2 -27 -7 -52 -18 -96 -45 -119 -54 -137 -54 -24 1 54 70 80 70
10 0 15 5 12 10 -3 6 -1 10 6 10 7 0 24 10 37 23 14 12 21 15 17 7 -5 -8 18 9
52 37 33 29 68 53 77 53 9 0 21 9 28 20 7 11 17 20 22 20 4 0 22 11 40 25 84
69 140 111 167 126 39 22 97 67 135 104 43 41 114 101 144 122 30 20 143 115
187 158 17 16 59 56 92 88 34 33 61 62 61 66 0 9 79 81 89 81 4 0 19 15 32 34
23 31 97 119 147 174 12 14 22 29 22 35 0 5 11 20 26 33 14 13 22 24 19 24 -6
0 31 58 45 70 9 9 30 44 46 78 8 18 19 30 24 27 4 -3 18 18 29 47 11 29 31 76
45 103 14 28 26 60 26 72 0 12 5 25 10 28 6 3 10 21 10 39 0 17 6 38 13 45 19
19 15 310 -6 381 -24 82 -67 213 -77 231 -5 9 -6 27 -3 39 4 16 3 21 -5 16 -8
-4 -16 4 -22 21 -34 93 -104 225 -182 342 -21 31 -38 60 -38 65 0 5 -8 16 -17
25 -10 9 -22 24 -28 33 -19 30 -122 173 -143 197 -12 13 -24 32 -27 42 -4 11
-11 19 -16 19 -5 0 -14 11 -19 25 -5 14 -14 25 -20 25 -5 0 -10 5 -10 11 0 6
-29 41 -64 78 -176 183 -203 212 -221 237 -11 15 -37 43 -57 62 -21 19 -40 43
-43 53 -4 11 -12 19 -19 19 -15 0 -186 176 -186 191 0 6 -5 7 -11 3 -6 -3 -21
3 -33 14 -63 62 -121 112 -128 112 -4 0 -8 6 -8 13 0 6 -14 20 -31 30 -17 9
-33 26 -36 36 -3 11 -19 25 -35 32 -26 11 -32 10 -42 -2 -12 -17 -172 -99
-192 -99 -7 0 -18 -9 -24 -20 -6 -11 -17 -20 -26 -20 -8 0 -17 -6 -20 -13 -2
-7 -14 -14 -27 -14 -12 -1 -23 -7 -25 -13 -2 -5 -12 -10 -23 -10 -10 0 -19 -4
-19 -10 0 -5 -9 -10 -20 -10 -11 0 -20 -4 -20 -10 0 -5 -8 -10 -19 -10 -10 0
-24 -7 -31 -15 -7 -8 -17 -15 -22 -15 -5 0 -21 -9 -35 -20 -14 -11 -34 -20
-44 -20 -11 0 -19 -4 -19 -9 0 -5 -15 -14 -32 -22 -18 -7 -35 -15 -38 -18 -3
-3 -14 -12 -25 -19 -11 -7 -36 -22 -55 -35 -19 -12 -37 -22 -40 -22 -15 -2
-97 -50 -119 -71 -14 -13 -29 -24 -34 -24 -4 0 -41 -22 -82 -50 -41 -27 -77
-50 -80 -50 -3 0 -15 -8 -26 -18 -10 -11 -32 -25 -47 -33 -15 -8 -32 -21 -39
-29 -7 -8 -13 -11 -13 -6 0 4 -18 -8 -40 -28 -22 -20 -46 -36 -53 -36 -6 0
-32 -19 -57 -41 -25 -23 -67 -59 -95 -81 -65 -50 -145 -119 -220 -190 -33 -32
-63 -58 -67 -58 -5 0 -8 -6 -8 -14 0 -7 -11 -21 -25 -30 -14 -9 -25 -21 -25
-27 0 -10 -13 -27 -66 -84 -12 -13 -31 -39 -43 -59 -22 -35 -41 -47 -41 -26 0
10 98 179 109 190 17 15 69 90 86 124 10 21 40 60 65 86 56 61 123 138 132
155 20 34 244 245 255 241 7 -3 13 0 13 7 0 17 50 62 170 153 58 43 107 82
108 87 2 4 10 7 17 7 8 0 20 6 27 13 21 18 76 57 83 57 4 0 30 16 59 35 29 19
57 35 62 35 14 0 146 69 165 86 8 8 19 14 24 14 4 0 37 14 74 31 83 39 97 45
146 59 22 7 49 18 60 25 11 6 54 23 95 35 41 13 85 30 97 38 12 7 27 11 32 7
13 -7 26 39 17 61 -3 8 -10 13 -16 9 -5 -3 -29 24 -52 59 -24 36 -47 66 -53
66 -5 1 -23 19 -40 40 -16 21 -33 39 -37 40 -4 0 -35 27 -68 60 -33 33 -64 60
-69 60 -4 0 -18 11 -30 24 -13 14 -38 32 -55 41 -17 9 -42 23 -56 31 -26 15
-80 19 -80 7 0 -5 -26 -9 -58 -10 -52 -1 -83 -8 -165 -33 -20 -6 -25 -5 -20 3
5 9 3 9 -8 1 -8 -7 -33 -15 -56 -19 -24 -4 -45 -11 -49 -16 -3 -5 -10 -6 -16
-3 -9 6 -24 1 -78 -26 -8 -4 -40 -13 -70 -21 -30 -7 -61 -21 -67 -30 -7 -9
-28 -20 -46 -23 -18 -3 -70 -24 -115 -46 -45 -22 -86 -40 -92 -40 -6 0 -8 -4
-5 -10 3 -5 -1 -11 -9 -11 -32 -3 -86 -26 -86 -36 0 -12 -99 -58 -107 -49 -4
4 13 25 37 46 25 21 53 45 63 54 9 9 19 16 22 16 3 0 13 7 23 15 9 8 26 23 38
33 11 9 47 35 80 57 32 22 63 45 67 52 4 7 15 13 22 13 8 0 15 5 15 10 0 6 7
10 15 10 8 0 15 4 15 10 0 5 11 12 25 16 14 3 31 14 38 23 6 10 19 20 27 24 8
4 38 20 65 37 122 72 315 161 440 201 50 16 97 32 105 36 25 10 110 27 200 39
19 2 42 7 50 11 44 19 321 23 343 5z m-1013 -2337 c19 -12 47 -25 62 -28 24
-6 119 -50 393 -182 61 -29 143 -67 183 -85 39 -18 72 -36 72 -40 0 -31 -96
-54 -228 -54 -108 0 -122 2 -177 28 -115 54 -196 125 -307 271 -91 120 -91
147 2 90z m1930 -215 c0 -12 -55 -76 -94 -109 -15 -14 -33 -30 -40 -36 -27
-26 -113 -76 -160 -94 -81 -30 -126 -34 -198 -17 -70 16 -145 54 -131 66 9 8
100 38 363 121 91 28 183 57 205 65 49 16 55 17 55 4z m-2381 -169 c26 -27 69
-66 96 -86 28 -21 53 -43 56 -48 4 -5 25 -21 46 -36 22 -14 78 -52 125 -83 47
-32 91 -58 96 -58 6 0 12 -3 14 -7 2 -5 28 -20 58 -36 30 -15 62 -31 70 -36
15 -9 46 -23 125 -56 272 -112 560 -148 765 -96 41 11 77 17 79 15 6 -5 -21
-96 -35 -119 -6 -11 -14 -39 -18 -62 -6 -42 -28 -118 -46 -158 -5 -11 -11 -33
-13 -50 -2 -16 -23 -91 -46 -165 -60 -195 -67 -222 -63 -252 4 -32 17 -37 26
-10 3 9 19 37 35 62 16 25 30 51 30 58 1 7 17 38 36 68 19 30 35 57 35 61 0
11 52 117 70 143 9 14 37 63 61 110 23 47 45 87 48 90 10 9 51 94 51 106 0 25
51 69 82 71 132 8 216 33 358 106 63 32 117 62 120 66 6 8 96 71 103 71 3 0
-53 -113 -105 -211 -31 -57 -102 -127 -188 -184 -206 -137 -216 -151 -97 -148
55 2 77 -1 77 -10 0 -30 -222 -278 -324 -362 -27 -22 -60 -51 -75 -65 -14 -15
-74 -63 -132 -107 -58 -45 -111 -89 -119 -97 -7 -9 -18 -16 -25 -16 -7 0 -18
-7 -25 -15 -6 -7 -35 -28 -63 -45 -29 -17 -67 -40 -85 -51 l-32 -21 -84 56
c-46 31 -87 56 -91 56 -4 0 -20 11 -37 25 -16 14 -36 25 -44 25 -8 0 -14 3
-14 8 0 4 -25 23 -56 42 -30 19 -80 54 -110 78 -30 23 -68 51 -84 60 -16 10
-46 33 -67 50 -21 18 -62 50 -90 72 -29 22 -53 45 -53 50 0 6 38 10 90 10 100
0 113 10 66 53 -14 12 -37 34 -53 48 -16 15 -39 30 -51 33 -12 4 -22 12 -22
17 0 5 -11 14 -25 19 -14 5 -25 14 -25 19 0 5 -26 28 -57 52 -108 80 -303 291
-303 327 0 8 -11 50 -25 91 -34 101 -41 125 -54 196 -6 33 -18 94 -26 136 -24
126 -29 189 -15 189 7 0 33 -22 59 -49z"/>
</g>
</svg>
